<?xml version="1.0" standalone="no"?><!DOCTYPE svg PUBLIC "-//W3C//DTD SVG 1.1//EN" "http://www.w3.org/Graphics/SVG/1.1/DTD/svg11.dtd"><svg t="1631878007236" class="icon" viewBox="0 0 1024 1024" version="1.1" xmlns="http://www.w3.org/2000/svg" p-id="16774" xmlns:xlink="http://www.w3.org/1999/xlink" width="200" height="200"><defs><style type="text/css"></style></defs><path d="M950.86 929.96H73.14c-34.57 0-62.69-28.12-62.69-62.69V156.73c0-34.57 28.12-62.69 62.69-62.69h877.71c34.57 0 62.69 28.12 62.69 62.69v710.53c0.01 34.58-28.11 62.7-62.68 62.7zM73.14 135.84c-11.52 0-20.9 9.38-20.9 20.9v710.53c0 11.53 9.38 20.9 20.9 20.9h877.71c11.53 0 20.9-9.37 20.9-20.9V156.73c0-11.52-9.37-20.9-20.9-20.9H73.14z" fill="#000333" p-id="16775"></path><path d="M512 741.88c-8.29 0-16.13-4.96-19.41-13.14L344.82 359.29 197.04 728.73c-4.31 10.71-16.46 15.94-27.17 11.65-10.71-4.29-15.93-16.45-11.64-27.16l167.18-417.97a20.919 20.919 0 0 1 19.41-13.13c8.54 0 16.22 5.2 19.41 13.13l167.18 417.97c4.29 10.71-0.94 22.88-11.65 27.16-2.54 1.03-5.17 1.5-7.76 1.5z" fill="#000333" p-id="16776"></path><path d="M438.27 554.82H252.78c-11.54 0-20.9-9.35-20.9-20.9 0-11.55 9.36-20.9 20.9-20.9h185.49c11.54 0 20.9 9.35 20.9 20.9-0.01 11.55-9.36 20.9-20.9 20.9z" fill="#000333" p-id="16777"></path></svg>