<?xml version="1.0" standalone="no"?><!DOCTYPE svg PUBLIC "-//W3C//DTD SVG 1.1//EN" "http://www.w3.org/Graphics/SVG/1.1/DTD/svg11.dtd"><svg t="1631877428050" class="icon" viewBox="0 0 1024 1024" version="1.1" xmlns="http://www.w3.org/2000/svg" p-id="8691" xmlns:xlink="http://www.w3.org/1999/xlink" width="200" height="200"><defs><style type="text/css"></style></defs><path d="M787.692308 551.384615a78.769231 78.769231 0 0 1 78.76923 78.769231v157.538462a78.769231 78.769231 0 0 1-78.76923 78.76923h-157.538462a78.769231 78.769231 0 0 1-78.769231-78.76923v-157.538462a78.769231 78.769231 0 0 1 78.769231-78.769231h157.538462z m-304.836923 2.875077a19.692308 19.692308 0 0 1 8.152615 23.867077l-1.575385 3.190154-168.054153 275.692308a19.692308 19.692308 0 0 1-22.488616 8.625231l-3.150769-1.260308-147.022769-73.491692a19.692308 19.692308 0 0 1 14.336-36.548924l3.308307 1.299693 130.796308 65.417846 158.641231-260.214154a19.692308 19.692308 0 0 1 27.057231-6.577231zM787.692308 590.769231h-157.538462a39.384615 39.384615 0 0 0-39.108923 34.776615L590.769231 630.153846v157.538462a39.384615 39.384615 0 0 0 34.776615 39.108923L630.153846 827.076923h157.538462a39.384615 39.384615 0 0 0 39.108923-34.776615L827.076923 787.692308v-157.538462a39.384615 39.384615 0 0 0-34.776615-39.108923L787.692308 590.769231z m0-433.230769a78.769231 78.769231 0 0 1 78.76923 78.76923v157.538462a78.769231 78.769231 0 0 1-78.76923 78.769231h-157.538462a78.769231 78.769231 0 0 1-78.769231-78.769231V236.307692a78.769231 78.769231 0 0 1 78.769231-78.76923h157.538462z m-304.836923 2.875076a19.692308 19.692308 0 0 1 8.152615 23.867077l-1.575385 3.190154-168.054153 275.692308a19.692308 19.692308 0 0 1-22.488616 8.625231l-3.150769-1.260308-147.022769-73.491692a19.692308 19.692308 0 0 1 14.336-36.548923l3.308307 1.299692 130.796308 65.417846 158.641231-260.214154a19.692308 19.692308 0 0 1 27.057231-6.577231zM787.692308 196.923077h-157.538462a39.384615 39.384615 0 0 0-39.108923 34.776615L590.769231 236.307692v157.538462a39.384615 39.384615 0 0 0 34.776615 39.108923L630.153846 433.230769h157.538462a39.384615 39.384615 0 0 0 39.108923-34.776615L827.076923 393.846154V236.307692a39.384615 39.384615 0 0 0-34.776615-39.108923L787.692308 196.923077z" fill="#333333" p-id="8692"></path></svg>