<?xml version="1.0" standalone="no"?><!DOCTYPE svg PUBLIC "-//W3C//DTD SVG 1.1//EN" "http://www.w3.org/Graphics/SVG/1.1/DTD/svg11.dtd"><svg t="1631876625037" class="icon" viewBox="0 0 1024 1024" version="1.1" xmlns="http://www.w3.org/2000/svg" p-id="4161" xmlns:xlink="http://www.w3.org/1999/xlink" width="200" height="200"><defs><style type="text/css"></style></defs><path d="M512 85.333333c235.306667 0 426.666667 191.36 426.666667 426.666667s-191.36 426.666667-426.666667 426.666667S85.333333 747.306667 85.333333 512 276.693333 85.333333 512 85.333333m0-85.333333C229.333333 0 0 229.333333 0 512s229.333333 512 512 512 512-229.333333 512-512S794.666667 0 512 0z" p-id="4162"></path><path d="M512 512m-213.333333 0a213.333333 213.333333 0 1 0 426.666666 0 213.333333 213.333333 0 1 0-426.666666 0Z" p-id="4163"></path></svg>