<?xml version="1.0" standalone="no"?><!DOCTYPE svg PUBLIC "-//W3C//DTD SVG 1.1//EN" "http://www.w3.org/Graphics/SVG/1.1/DTD/svg11.dtd"><svg t="1631878581604" class="icon" viewBox="0 0 1024 1024" version="1.1" xmlns="http://www.w3.org/2000/svg" p-id="32187" xmlns:xlink="http://www.w3.org/1999/xlink" width="200" height="200"><defs><style type="text/css"></style></defs><path d="M816.35 258.91H188.34c-8.83 0-16-7.17-16-16s7.17-16 16-16h628.01c1.35 0 2.27-1.77 2.58-2.54 1.06-2.46 1.12-5.96-1.08-8.29l-63.57-66.64c-6.1-6.39-5.85-16.52 0.54-22.62s16.52-5.87 22.62 0.54L840.99 194c10.79 11.31 13.69 28.16 7.37 42.95-5.81 13.54-18.06 21.96-32.01 21.96zM258.14 901.6c-4.23 0-8.44-1.67-11.58-4.96L182.99 830c-10.79-11.33-13.66-28.2-7.33-42.99 5.79-13.52 18.04-21.91 31.97-21.91h628.01c8.83 0 16 7.17 16 16s-7.17 16-16 16H207.63c-1.33 0-2.25 1.77-2.56 2.52-1.06 2.46-1.12 6 1.08 8.31l63.57 66.64c6.08 6.39 5.85 16.52-0.54 22.62-3.1 2.95-7.06 4.41-11.04 4.41zM794.62 718.71H229.38c-55.87 0-101.32-45.45-101.32-101.32V406.6c0-55.87 45.45-101.32 101.32-101.32h565.24c55.87 0 101.32 45.45 101.32 101.32v210.8c0 55.86-45.45 101.31-101.32 101.31zM229.38 337.27c-38.22 0-69.32 31.1-69.32 69.32v210.8c0 38.22 31.1 69.32 69.32 69.32h565.24c38.22 0 69.32-31.1 69.32-69.32V406.6c0-38.22-31.1-69.32-69.32-69.32H229.38z" fill="#333333" p-id="32188"></path><path d="M220.65 607.19c-8.83 0-16-7.17-16-16V434.34c0-8.83 7.17-16 16-16s16 7.17 16 16v156.85c0 8.83-7.17 16-16 16z" fill="#333333" p-id="32189"></path><path d="M328.7 607.69c-32.22 0-58.45-26.23-58.45-58.45v-74.47c0-32.22 26.23-58.45 58.45-58.45s58.45 26.23 58.45 58.45v74.47c-0.01 32.22-26.23 58.45-58.45 58.45z m0-159.37c-14.58 0-26.45 11.87-26.45 26.45v74.47c0 14.58 11.87 26.45 26.45 26.45s26.45-11.87 26.45-26.45v-74.47c0-14.58-11.87-26.45-26.45-26.45z" fill="#19C0BB" p-id="32190"></path><path d="M436.74 607.19c-8.83 0-16-7.17-16-16V434.34c0-8.83 7.17-16 16-16s16 7.17 16 16v156.85c0 8.83-7.17 16-16 16z" fill="#333333" p-id="32191"></path><path d="M544.79 607.69c-32.22 0-58.45-26.23-58.45-58.45v-74.47c0-32.22 26.23-58.45 58.45-58.45s58.45 26.23 58.45 58.45v74.47c0 32.22-26.23 58.45-58.45 58.45z m0-159.37c-14.58 0-26.45 11.87-26.45 26.45v74.47c0 14.58 11.87 26.45 26.45 26.45s26.45-11.87 26.45-26.45v-74.47c0-14.58-11.87-26.45-26.45-26.45z" fill="#19C0BB" p-id="32192"></path><path d="M652.83 607.19c-8.83 0-16-7.17-16-16V434.34c0-8.83 7.17-16 16-16s16 7.17 16 16v156.85c0 8.83-7.17 16-16 16z" fill="#333333" p-id="32193"></path><path d="M760.88 607.69c-32.22 0-58.45-26.23-58.45-58.45v-74.47c0-32.22 26.23-58.45 58.45-58.45s58.45 26.23 58.45 58.45v74.47c0 32.22-26.23 58.45-58.45 58.45z m0-159.37c-14.58 0-26.45 11.87-26.45 26.45v74.47c0 14.58 11.87 26.45 26.45 26.45s26.45-11.87 26.45-26.45v-74.47c0-14.58-11.87-26.45-26.45-26.45z" fill="#19C0BB" p-id="32194"></path></svg>