<?xml version="1.0" standalone="no"?><!DOCTYPE svg PUBLIC "-//W3C//DTD SVG 1.1//EN" "http://www.w3.org/Graphics/SVG/1.1/DTD/svg11.dtd"><svg t="1631876988273" class="icon" viewBox="0 0 1280 1024" version="1.1" xmlns="http://www.w3.org/2000/svg" p-id="4631" xmlns:xlink="http://www.w3.org/1999/xlink" width="250" height="200"><defs><style type="text/css"></style></defs><path d="M415.911359 375.852057a257.481124 257.481124 0 0 1 57.587727-153.567271A235.533802 235.533802 0 0 1 671.856811 128.032873a215.953975 215.953975 0 0 1 191.959088 109.224721A396.971395 396.971395 0 0 1 927.802262 447.964688a62.834608 62.834608 0 0 0 19.195909 46.326126 66.161899 66.161899 0 0 0 44.790454 17.59625A177.562157 177.562157 0 0 1 1151.754532 703.910139a156.638616 156.638616 0 0 1-76.783635 156.57463 292.801597 292.801597 0 0 1-147.168635 35.384459h-575.877266a256.585315 256.585315 0 0 1-140.769998-35.89635c-38.391818-27.258191-83.182272-82.86234-83.182272-210.195202a224.848079 224.848079 0 0 1 223.95227-211.666888 70.065067 70.065067 0 0 0 63.986363-62.258731zM671.856811 0.060147a372.400632 372.400632 0 0 0-300.735906 143.841344 516.753867 516.753867 0 0 0-76.783636 170.779603A352.692832 352.692832 0 0 0 0 649.777676c0 160.605771 57.587727 260.040579 140.769998 315.836687a365.938009 365.938009 0 0 0 211.154998 58.227591h575.877266a429.476468 429.476468 0 0 0 217.553634-54.452395A295.105106 295.105106 0 0 0 1279.727258 703.910139a316.476551 316.476551 0 0 0-230.350906-313.917096 510.227258 510.227258 0 0 0-76.783636-222.288625A347.63791 347.63791 0 0 0 671.856811 0.060147zM473.499086 460.76196a68.657367 68.657367 0 0 0-12.797273 89.580908 63.986363 63.986363 0 0 0 89.580908 12.797273l25.594545-19.195909V703.910139a63.986363 63.986363 0 0 0 127.972726 0V543.944232l25.594545 19.195909a63.986363 63.986363 0 0 0 89.580908-12.797273 68.657367 68.657367 0 0 0-12.797272-89.580908l-127.972726-95.979544a63.85839 63.85839 0 0 0-76.783636 0z" p-id="4632"></path></svg>